<svg width="102" height="40" viewBox="0 0 102 40" fill="none" xmlns="http://www.w3.org/2000/svg">
<path d="M19.5315 39.9998C16.9539 40.0017 14.4023 39.4839 12.0294 38.4774C9.65639 37.4709 7.51068 35.9963 5.72046 34.1418C2.05123 30.3484 0 25.2774 0 19.9998C0 14.7222 2.05123 9.65123 5.72046 5.85783C7.51185 4.00488 9.65779 2.53135 12.0305 1.52499C14.4032 0.518623 16.9542 0 19.5315 0C22.1088 0 24.6597 0.518623 27.0324 1.52499C29.4051 2.53135 31.5511 4.00488 33.3425 5.85783C37.0117 9.65123 39.0629 14.7222 39.0629 19.9998C39.0629 25.2774 37.0117 30.3484 33.3425 34.1418C31.5523 35.9964 29.4066 37.471 27.0336 38.4775C24.6606 39.484 22.1091 40.0018 19.5315 39.9998ZM23.2775 29.2338V32.2338C23.5055 32.2808 23.7377 32.3046 23.9705 32.3048C24.6318 32.3206 25.2911 32.2245 25.9205 32.0208C26.4464 31.8338 26.9209 31.5254 27.3055 31.1208C27.7352 30.6547 28.0895 30.1243 28.3555 29.5488C28.6645 28.9078 28.9905 28.1398 29.3245 27.2678L34.0105 14.7408H30.4795L27.5945 23.0848L24.5475 14.7408H20.6225L25.7935 27.2408C25.6099 27.8063 25.3455 28.3422 25.0085 28.8318C24.8843 28.986 24.7255 29.1086 24.5449 29.1896C24.3643 29.2706 24.1671 29.3077 23.9695 29.2978C23.7367 29.2976 23.5045 29.2738 23.2765 29.2268L23.2775 29.2338ZM11.0895 25.5708C11.2568 25.8393 11.4537 26.0882 11.6765 26.3128C11.9267 26.5663 12.2099 26.7849 12.5185 26.9628C12.8592 27.1587 13.2239 27.3096 13.6035 27.4118C14.0252 27.5242 14.46 27.5797 14.8965 27.5768C15.64 27.5869 16.3779 27.446 17.0655 27.1628C17.706 26.8909 18.2748 26.4744 18.7275 25.9458C19.2171 25.3572 19.5788 24.673 19.7895 23.9368C20.0499 23.0224 20.1742 22.0745 20.1585 21.1238V20.6508C20.2784 18.9912 19.805 17.3428 18.8225 15.9998C18.3261 15.4639 17.7163 15.0455 17.0376 14.7753C16.3589 14.505 15.6284 14.3898 14.8995 14.4378C14.2003 14.4363 13.5116 14.6083 12.8952 14.9383C12.2788 15.2683 11.7539 15.7461 11.3675 16.3288V10.7288H7.81246V27.2718H11.0895V25.5718V25.5708ZM14.0445 24.5788C13.6895 24.5851 13.3372 24.5172 13.01 24.3794C12.6828 24.2416 12.388 24.0371 12.1445 23.7788C11.5955 23.1458 11.3178 22.3221 11.3715 21.4858V20.2998C11.3432 19.9089 11.3975 19.5165 11.5308 19.148C11.6642 18.7794 11.8736 18.4431 12.1455 18.1608C12.6606 17.6819 13.3423 17.4228 14.0455 17.4388C14.384 17.428 14.7206 17.4936 15.0303 17.6307C15.34 17.7678 15.6149 17.9729 15.8345 18.2308C16.3405 18.9327 16.5818 19.7911 16.5155 20.6538V21.1268C16.5792 22.0399 16.3326 22.9476 15.8155 23.7028C15.6096 23.9774 15.342 24.1997 15.0344 24.3517C14.7267 24.5037 14.3876 24.5812 14.0445 24.5778V24.5788Z" fill="#01BAB3"/>
<path d="M49.7175 28.2999C48.5832 28.3995 47.4533 28.0654 46.5555 27.3649C46.1863 26.9383 45.9078 26.4409 45.737 25.9031C45.5663 25.3653 45.5069 24.7984 45.5625 24.2369V18.4659H43.9465V15.9269H45.5625V13.1569H48.6095V15.9269H51.5645V18.4659H48.6095V23.7749C48.5625 24.3002 48.697 24.8257 48.9905 25.2639C49.1814 25.4359 49.4069 25.565 49.6518 25.6427C49.8967 25.7203 50.1554 25.7446 50.4105 25.7139C50.8719 25.7139 51.3335 25.6909 51.7955 25.6449V28.1839C51.5029 28.2145 51.1989 28.2415 50.8835 28.2649C50.5682 28.2882 50.1795 28.2999 49.7175 28.2999ZM53.9875 15.9279H56.8035V17.7279C56.9251 17.4593 57.0803 17.2073 57.2655 16.9779C57.4696 16.7205 57.7109 16.495 57.9815 16.3089C58.2645 16.1135 58.5709 15.9546 58.8935 15.8359C59.2461 15.7087 59.6187 15.646 59.9935 15.6509C60.2443 15.6482 60.495 15.6635 60.7435 15.6969C60.8802 15.7107 61.0146 15.7417 61.1435 15.7889V18.4889C60.9519 18.4161 60.755 18.3583 60.5545 18.3159C60.239 18.2549 59.9178 18.2278 59.5965 18.2349C59.1919 18.2234 58.7898 18.3023 58.4195 18.4659C58.1105 18.6075 57.8371 18.8166 57.6195 19.0779C57.4082 19.3389 57.2548 19.642 57.1695 19.9669C57.0764 20.3131 57.0299 20.6703 57.0315 21.0289V28.1619H53.9845L53.9875 15.9279ZM68.2985 28.4349C67.4943 28.4391 66.6948 28.3103 65.9325 28.0539C65.2077 27.8126 64.5429 27.4191 63.9825 26.8999C63.4053 26.3503 62.9561 25.6804 62.6665 24.9379C62.3263 24.051 62.1616 23.1065 62.1815 22.1569V21.6949C62.1631 20.7881 62.321 19.8864 62.6465 19.0399C62.9265 18.3272 63.3601 17.6849 63.9165 17.1589C64.4561 16.6582 65.0925 16.2733 65.7865 16.0279C66.5204 15.7695 67.2936 15.6406 68.0715 15.6469C68.8673 15.5904 69.6663 15.6959 70.4202 15.957C71.1741 16.218 71.8671 16.6293 72.4575 17.1659C72.9867 17.762 73.3916 18.4576 73.6487 19.2121C73.9057 19.9666 74.0097 20.7647 73.9545 21.5599V22.8489H65.2985C65.3017 23.3311 65.3957 23.8084 65.5755 24.2559C65.725 24.6227 65.9534 24.9522 66.2445 25.2209C66.5214 25.4691 66.848 25.6556 67.2025 25.7679C67.5578 25.8832 67.929 25.9419 68.3025 25.9419C68.9139 25.978 69.5244 25.8579 70.0765 25.5929C70.4736 25.364 70.7763 25.0014 70.9305 24.5699H73.7235C73.6347 25.1516 73.4268 25.7087 73.113 26.2064C72.7991 26.7042 72.3861 27.1319 71.8995 27.4629C70.8239 28.1407 69.5692 28.4794 68.2985 28.4349ZM68.1835 18.1399C67.829 18.1398 67.476 18.1862 67.1335 18.2779C66.8035 18.3624 66.4935 18.5117 66.2215 18.7169C65.947 18.9331 65.726 19.2095 65.5755 19.5249C65.3959 19.9077 65.3014 20.325 65.2985 20.7479H70.9985C70.9979 20.3132 70.9158 19.8824 70.7565 19.4779C70.6277 19.1624 70.4213 18.8845 70.1565 18.6699C69.8952 18.4664 69.5913 18.3245 69.2675 18.2549C68.9116 18.1762 68.548 18.1377 68.1835 18.1399ZM76.1465 15.9239H78.9635V17.7239C79.3011 17.123 79.7908 16.6215 80.3835 16.2699C81.188 15.8167 82.1044 15.6006 83.0265 15.6469C83.6358 15.5984 84.2483 15.6804 84.8234 15.8873C85.3985 16.0942 85.9229 16.4213 86.3615 16.8469C87.1528 17.8203 87.5458 19.0573 87.4615 20.3089V28.1569H84.4105V20.9999C84.4648 20.2641 84.2658 19.5319 83.8465 18.9249C83.5979 18.6722 83.2956 18.4788 82.962 18.359C82.6284 18.2392 82.2721 18.1961 81.9195 18.2329C81.4925 18.2203 81.0677 18.299 80.6735 18.4639C80.352 18.6053 80.0645 18.8139 79.8305 19.0759C79.6073 19.3297 79.4418 19.6289 79.3455 19.9529C79.2441 20.2936 79.1936 20.6474 79.1955 21.0029V28.1589H76.1465V15.9239ZM94.7285 28.4349C94.0197 28.4696 93.3118 28.348 92.6552 28.0787C91.9985 27.8095 91.409 27.3992 90.9285 26.8769C89.8967 25.5296 89.3982 23.8489 89.5285 22.1569V21.6949C89.4149 20.0711 89.9177 18.4643 90.9365 17.1949C91.4176 16.6778 92.0054 16.2716 92.6592 16.0045C93.313 15.7374 94.017 15.6157 94.7225 15.6479C95.4906 15.6334 96.2491 15.8203 96.9225 16.1899C97.5446 16.5365 98.0779 17.0225 98.4805 17.6099V11.9999H101.528V28.1579H98.6985V26.3579C98.3458 26.9579 97.8461 27.4583 97.2465 27.8119C96.4832 28.2539 95.6099 28.47 94.7285 28.4349ZM95.4465 25.8499C96.2566 25.8834 97.0472 25.5959 97.6465 25.0499C97.9481 24.7246 98.1788 24.3402 98.324 23.921C98.4691 23.5018 98.5255 23.057 98.4895 22.6149V21.2329C98.5208 20.817 98.4593 20.3993 98.3095 20.01C98.1598 19.6208 97.9255 19.2696 97.6235 18.9819C97.0145 18.4704 96.2373 18.2032 95.4425 18.2319C95.0613 18.2194 94.682 18.2905 94.3312 18.4401C93.9804 18.5897 93.6665 18.8142 93.4115 19.0979C92.8348 19.8363 92.5548 20.7636 92.6265 21.6979V22.1599C92.5486 23.1543 92.8359 24.143 93.4345 24.9409C93.6815 25.2321 93.9902 25.4647 94.3382 25.622C94.6862 25.7792 95.0648 25.857 95.4465 25.8499Z" fill="black" fill-opacity="0.85"/>
</svg>
